<svg xmlns="http://www.w3.org/2000/svg" version="1.1" xmlns:xlink="http://www.w3.org/1999/xlink" xmlns:svgjs="http://svgjs.dev/svgjs" width="1500" height="412" viewBox="0 0 1500 412"><g transform="matrix(1,0,0,1,-0.9090909090909918,-0.12605115926882604)"><svg viewBox="0 0 396 109" data-background-color="#ffffff" preserveAspectRatio="xMidYMid meet" height="412" width="1500" xmlns="http://www.w3.org/2000/svg" xmlns:xlink="http://www.w3.org/1999/xlink"><g id="tight-bounds" transform="matrix(1,0,0,1,0.2400000000000091,0.03334848631141085)"><svg viewBox="0 0 395.52 108.93330302737719" height="108.93330302737719" width="395.52"><g><svg viewBox="0 0 571.6046908893458 157.4301855899054" height="108.93330302737719" width="395.52"><g transform="matrix(1,0,0,1,176.08469088934578,21.757717400630924)"><svg viewBox="0 0 395.52 113.91475078864354" height="113.91475078864354" width="395.52"><g id="textblocktransform"><svg viewBox="0 0 395.52 113.91475078864354" height="113.91475078864354" width="395.52" id="textblock"><g><svg viewBox="0 0 395.52 113.91475078864354" height="113.91475078864354" width="395.52"><g transform="matrix(1,0,0,1,0,0)"><svg width="395.52" viewBox="1.3 -35.85 158.48 45.650000000000006" height="113.91475078864354" data-palette-color="#f0f0f0"><path d="M12.85-20.95L12.85-20.95Q13.05-20.95 13.6-20.55 14.15-20.15 14.75-20.15L14.75-20.15 14.8-20.15Q16.5-20.15 17.5-21.5 18.5-22.85 18.6-24.2L18.6-24.2 18.75-25.55Q18.75-27.45 18.18-28.83 17.6-30.2 16.85-30.88 16.1-31.55 15.1-31.9L15.1-31.9Q13.85-32.4 12.48-32.4 11.1-32.4 10.25-32.13 9.4-31.85 9.3-31.6L9.3-31.6 9.25-31.3Q8.8-24.55 8.8-19.23 8.8-13.9 8.97-10.05 9.15-6.2 9.33-4.13 9.5-2.05 9.5-1.85L9.5-1.85Q9.5-0.6 7.3 0.15 5.1 0.9 2.95 0.9L2.95 0.9Q1.95 0.9 1.95 0.4L1.95 0.4Q1.95 0.25 2.1-0.3L2.1-0.3Q3.05-2.5 3.05-20.75L3.05-20.75Q3.05-31.5 1.6-33.05L1.6-33.05Q1.3-33.35 1.3-33.68 1.3-34 2.02-34.4 2.75-34.8 6.1-35.33 9.45-35.85 13.2-35.85L13.2-35.85Q19.1-35.85 22.08-32.65 25.05-29.45 25.05-25.03 25.05-20.6 22.63-17.35 20.2-14.1 16.3-14.1L16.3-14.1Q15.05-14.1 13.8-14.55L13.8-14.55Q11.3-15.45 11.3-18.3L11.3-18.3Q11.3-18.9 11.7-19.93 12.1-20.95 12.85-20.95ZM33-28.6L33-28.6 32.7-10.25Q32.7-1.65 33.25 0.05L33.25 0.05Q33.4 0.35 33.4 0.65L33.4 0.65Q33.4 1.25 31.95 1.25 30.5 1.25 28.72 0.53 26.95-0.2 26.95-1.35L26.95-1.35Q27.95-8.35 27.95-20.05L27.95-20.05 27.75-27.7Q27.65-29.1 27.17-30.1 26.7-31.1 26.25-31.4L26.25-31.4 25.85-31.65Q25.5-31.85 25.5-32.1L25.5-32.1Q25.5-32.8 27.67-33.83 29.85-34.85 31.9-34.85L31.9-34.85Q32.7-34.85 32.8-34.3L32.8-34.3Q33-33 33-28.6ZM53.09-15L53.09-15 53-8.6Q53-1.95 54.45-0.6L54.45-0.6Q54.65-0.4 54.65-0.15L54.65-0.15Q54.65 0.6 51.42 0.6 48.2 0.6 48-1.3L48-1.3Q47.95-1.75 47.95-3.15L47.95-3.15 48.15-11.15Q48.15-11.5 47.75-11.5L47.75-11.5Q45.35-11.5 43.25-10.15 41.15-8.8 41.15-6.7L41.15-6.7Q41.15-5.6 41.75-4.85 42.35-4.1 43.22-4.1 44.1-4.1 44.67-4.45 45.25-4.8 45.35-4.85L45.35-4.85Q46.2-4.75 46.2-3.08 46.2-1.4 44.65-0.38 43.1 0.65 41.4 0.65 39.7 0.65 38.47 0.05 37.25-0.55 36.7-1.3 36.15-2.05 35.8-3L35.8-3Q35.45-4.15 35.45-5L35.45-5Q35.45-8.5 37.65-10.6 39.85-12.7 43.3-13.6L43.3-13.6Q47.85-14.5 48.05-15.25L48.05-15.25Q48.2-15.8 48.2-17.1L48.2-17.1Q48.2-19.75 45.5-19.75L45.5-19.75Q44.35-19.75 43.45-19.03 42.55-18.3 42.55-17.2L42.55-17.2 42.85-16Q42.75-15.15 41.05-15L41.05-15 40.5-14.95Q39-14.95 38.12-15.7 37.25-16.45 37.25-17.7L37.25-17.7Q37.25-18.5 37.77-19.48 38.3-20.45 39.1-21.05 39.9-21.65 41.57-22.13 43.25-22.6 44.8-22.6 46.35-22.6 47.2-22.5 48.05-22.4 49.52-22.03 51-21.65 51.97-20.6 52.95-19.55 53.02-18.38 53.09-17.2 53.09-15ZM56.14 0.35L56.14 0.35Q57.04-5.05 57.04-12.6 57.04-20.15 56.59-22.4L56.59-22.4Q56.59-23.05 58.09-23.05L58.09-23.05Q60.39-23.05 61.14-21.3L61.14-21.3Q61.19-21.15 61.39-21.15 61.59-21.15 61.69-21.25L61.69-21.25Q63.24-22.85 66.49-22.85 69.74-22.85 71.64-21.2 73.54-19.55 73.54-16.4L73.54-16.4Q73.54-14.5 73.22-11 72.89-7.5 72.89-5.8L72.89-5.8Q72.89-1.75 74.24 0.05L74.24 0.05Q74.44 0.3 74.44 0.55L74.44 0.55Q74.44 1.2 73.04 1.2L73.04 1.2Q66.84 1.2 66.84-4.3L66.84-4.3Q66.84-6.4 67.79-10.15 68.74-13.9 68.74-15.85L68.74-15.85Q68.74-19.85 65.44-19.85L65.44-19.85Q63.84-19.85 63.02-18.9 62.19-17.95 62.09-16.73 61.99-15.5 61.99-12.1L61.99-12.1Q61.99-6.9 62.34-3.05L62.34-3.05 62.44-1.95Q62.44-0.55 60.62 0.23 58.79 1 57.47 1 56.14 1 56.14 0.35ZM97.69-11.45L97.69-11.45Q98.64-11.45 98.64-9.05 98.64-6.65 97.74-4.75 96.84-2.85 95.56-1.8 94.29-0.75 92.69-0.1L92.69-0.1Q87.34 2.25 82.69-0.2L82.69-0.2Q80.34-1.45 79.09-3.18 77.84-4.9 77.09-7.3L77.09-7.3Q75.94-10.9 75.94-14.85 75.94-18.8 76.69-22.25 77.44-25.7 78.99-28.83 80.54-31.95 83.39-33.85 86.24-35.75 89.99-35.75L89.99-35.75Q91.59-35.75 93.31-35.23 95.04-34.7 96.14-33.93 97.24-33.15 98.09-31.55 98.94-29.95 98.94-27.8L98.94-27.8Q98.94-25.5 97.84-23.65L97.84-23.65Q97.34-22.8 96.24-22.13 95.14-21.45 93.64-21.45L93.64-21.45Q91.34-21.45 90.39-23.5L90.39-23.5Q89.99-24.3 89.99-25.25 89.99-26.2 90.64-26.35L90.64-26.35Q91.34-26.55 91.94-27.45 92.54-28.35 92.54-29.55L92.54-29.55Q92.54-30.5 92.04-31.2L92.04-31.2Q91.09-32.45 89.29-32.45 87.49-32.45 86.02-30.8 84.54-29.15 83.79-26.65L83.79-26.65Q82.29-21.65 82.29-17.45L82.29-17.45Q82.29-13.25 83.44-10.7L83.44-10.7Q84.84-7.55 86.99-6.5L86.99-6.5Q88.34-5.85 90.09-5.85L90.09-5.85Q93.04-5.85 95.39-8.5L95.39-8.5Q96.39-9.55 97.04-11L97.04-11Q97.29-11.45 97.69-11.45ZM116.89-17.2L116.64-13.4 116.84-11.65Q116.84-10.7 115.04-10.7L115.04-10.7Q111.39-10.7 111.39-13.45L111.39-13.45Q111.39-14.1 111.74-15.25 112.09-16.4 112.09-17.25 112.09-18.1 111.59-18.73 111.09-19.35 110.14-19.35 109.19-19.35 108.51-18.68 107.84-18 107.69-17.3L107.69-17.3 107.49-16.6Q107.19-15.05 107.19-11.43 107.19-7.8 107.29-5.73 107.39-3.65 107.49-2.88 107.59-2.1 107.59-1.95L107.59-1.95Q107.59-0.7 106.04 0.08 104.49 0.85 102.94 0.85 101.39 0.85 101.39 0.2L101.39 0.2 101.64-1.35Q102.34-5.7 102.34-12.7 102.34-19.7 101.84-22.2L101.84-22.2Q101.84-22.8 102.89-22.8L102.89-22.8Q105.59-22.8 106.49-20.95L106.49-20.95Q106.54-20.75 106.66-20.75 106.79-20.75 107.34-21.2L107.34-21.2Q108.99-22.55 111.24-22.55L111.24-22.55Q112.64-22.55 114.04-22L114.04-22Q116.89-20.85 116.89-17.2L116.89-17.2ZM134.69-15L134.69-15 134.59-8.6Q134.59-1.95 136.03-0.6L136.03-0.6Q136.24-0.4 136.24-0.15L136.24-0.15Q136.24 0.6 133.01 0.6 129.78 0.6 129.59-1.3L129.59-1.3Q129.53-1.75 129.53-3.15L129.53-3.15 129.74-11.15Q129.74-11.5 129.34-11.5L129.34-11.5Q126.94-11.5 124.83-10.15 122.73-8.8 122.73-6.7L122.73-6.7Q122.73-5.6 123.33-4.85 123.94-4.1 124.81-4.1 125.69-4.1 126.26-4.45 126.84-4.8 126.94-4.85L126.94-4.85Q127.78-4.75 127.78-3.08 127.78-1.4 126.23-0.38 124.69 0.65 122.98 0.65 121.28 0.65 120.06 0.05 118.83-0.55 118.28-1.3 117.73-2.05 117.39-3L117.39-3Q117.03-4.15 117.03-5L117.03-5Q117.03-8.5 119.23-10.6 121.44-12.7 124.89-13.6L124.89-13.6Q129.44-14.5 129.63-15.25L129.63-15.25Q129.78-15.8 129.78-17.1L129.78-17.1Q129.78-19.75 127.09-19.75L127.09-19.75Q125.94-19.75 125.03-19.03 124.14-18.3 124.14-17.2L124.14-17.2 124.44-16Q124.33-15.15 122.64-15L122.64-15 122.08-14.95Q120.58-14.95 119.71-15.7 118.83-16.45 118.83-17.7L118.83-17.7Q118.83-18.5 119.36-19.48 119.89-20.45 120.69-21.05 121.48-21.65 123.16-22.13 124.83-22.6 126.39-22.6 127.94-22.6 128.78-22.5 129.63-22.4 131.11-22.03 132.59-21.65 133.56-20.6 134.53-19.55 134.61-18.38 134.69-17.2 134.69-15ZM144.23-12.5L144.23-12.5 144.48-2.5Q144.48 0.65 143.66 3.08 142.83 5.5 141.63 6.7L141.63 6.7Q139.18 9.25 137.33 9.6L137.33 9.6 136.48 9.8Q135.73 9.8 135.73 9.35L135.73 9.35 135.98 8.6Q139.63 3.55 139.63-16.2L139.63-16.2Q139.63-18 139.58-18.9L139.58-18.9Q138.53-18.9 137.48-18.75L137.48-18.75 137.43-18.75Q136.88-18.75 136.88-19.3L136.88-19.3 137.03-21.2Q137.08-21.65 137.73-21.65L137.73-21.65 139.53-21.65 139.53-25 139.63-29.75Q139.63-30.1 139.76-30.53 139.88-30.95 140.83-31.83 141.78-32.7 143.63-33.43 145.48-34.15 146.81-34.15 148.13-34.15 148.13-33.35L148.13-33.35Q148.13-33.05 147.68-32.85L147.68-32.85Q146.23-32.4 145.31-30.28 144.38-28.15 144.38-23.05L144.38-23.05 144.38-21.65Q146.93-21.75 147.73-21.9L147.73-21.9Q148.08-21.9 148.08-21.3 148.08-20.7 147.56-19.83 147.03-18.95 146.26-18.93 145.48-18.9 144.33-18.95L144.33-18.95Q144.23-15.15 144.23-12.5ZM148.58-19.5L148.58-19.5 148.73-21.5Q148.78-21.95 149.43-21.95L149.43-21.95 151.18-21.95 150.98-25.95 150.98-26.15Q150.98-27.3 152.73-28.35 154.48-29.4 155.93-29.4L155.93-29.4Q156.38-29.4 156.38-29L156.38-29 156.38-28.95Q156.18-27.6 155.98-22L155.98-22Q158.18-22 158.78-22.1 159.38-22.2 159.43-22.2L159.43-22.2Q159.78-22.2 159.78-21.6 159.78-21 159.23-20.08 158.68-19.15 158.03-19.1L158.03-19.1 155.93-19.1Q155.88-17.4 155.88-13.38 155.88-9.35 155.96-6.75 156.03-4.15 156.13-2.83 156.23-1.5 156.36-0.7 156.48 0.1 156.56 0.45 156.63 0.8 156.63 0.9L156.63 0.9Q156.63 1.4 155.98 1.45L155.98 1.45Q154.03 1.45 152.11 0.9 150.18 0.35 150.18-1L150.18-1Q151.23-9.4 151.23-19.05L151.23-19.05Q149.88-19.05 149.18-18.95L149.18-18.95 149.13-18.95Q148.68-18.95 148.58-19.5Z" opacity="1" transform="matrix(1,0,0,1,0,0)" fill="#f0f0f0" class="wordmark-text-0" data-fill-palette-color="primary" id="text-0"></path></svg></g></svg></g></svg></g></svg></g><g><svg viewBox="0 0 149.19215218216596 157.4301855899054" height="157.4301855899054" width="149.19215218216596"><g><svg xmlns="http://www.w3.org/2000/svg" xmlns:xlink="http://www.w3.org/1999/xlink" version="1.1" x="0" y="0" viewBox="4.886874536263714 2.3000000000000003 90.3131254637363 95.3" enable-background="new 0 0 100 100" xml:space="preserve" height="157.4301855899054" width="149.19215218216596" class="icon-icon-0" data-fill-palette-color="accent" id="icon-0"><path d="M37.8 46.2C37.8 39.4 43.3 34 50 34S62.2 39.5 62.2 46.2V57C62.2 58.9 61.2 60.6 59.8 61.5V73.2C59.8 73.4 59.9 73.6 60.1 73.7 61.7 74.5 69.9 78.6 77.4 84.8 78.7 85.9 79.5 87.6 79.5 89.3V97.6H53.9L51.4 86C56.5 78.9 51 78.5 50.1 78.5 49.1 78.5 43.7 78.9 48.8 86L46.3 97.6H20.5V89.3C20.5 87.6 21.3 85.9 22.6 84.8 30.1 78.6 38.2 74.5 39.9 73.7 40.1 73.6 40.2 73.4 40.2 73.2V61.5C38.7 60.5 37.8 58.9 37.8 57zM45.2 10.9H47.7V27.8C47.7 28.2 48 28.5 48.4 28.5H51.5C51.9 28.5 52.2 28.2 52.2 27.8V10.9H54.7C55.2 10.9 55.5 10.3 55.3 9.9L51 2.9C50.5 2.1 49.4 2.1 48.9 2.9L44.6 9.9C44.4 10.3 44.7 10.9 45.2 10.9M5.5 48.5L12.5 52.8C12.9 53.1 13.5 52.8 13.5 52.2V49.7H30.4C30.8 49.7 31.1 49.4 31.1 49V45.9C31.1 45.5 30.8 45.2 30.4 45.2H13.4V42.7C13.4 42.2 12.8 41.9 12.4 42.1L5.4 46.4C4.7 46.9 4.7 48 5.5 48.5M69 45.9V49C69 49.4 69.3 49.7 69.7 49.7H86.6V52.2C86.6 52.7 87.2 53 87.6 52.8L94.6 48.5C95.4 48 95.4 46.9 94.6 46.4L87.6 42.1C87.2 41.8 86.6 42.1 86.6 42.7V45.2H69.7C69.3 45.2 69 45.5 69 45.9M19.6 24.7C19.7 25.2 20.4 25.4 20.7 25L22.5 23.2 34.4 35.1C34.7 35.4 35.1 35.4 35.4 35.1L37.6 32.9C37.9 32.6 37.9 32.2 37.6 31.9L25.8 20 27.6 18.2C28 17.8 27.8 17.2 27.3 17.1L19.3 15.2C18.4 15 17.6 15.8 17.8 16.7zM64.5 35.2C64.8 35.5 65.2 35.5 65.5 35.2L77.4 23.3 79.2 25.1C79.6 25.5 80.2 25.3 80.3 24.8L82.2 16.8C82.4 15.9 81.6 15.1 80.7 15.3L72.7 17.2C72.2 17.3 72 18 72.4 18.3L74.2 20.1 62.3 32C62 32.3 62 32.7 62.3 33z" fill="#f0f0f0" data-fill-palette-color="accent"></path></svg></g></svg></g></svg></g><defs></defs></svg><rect width="395.52" height="108.93330302737719" fill="none" stroke="none" visibility="hidden"></rect></g></svg></g></svg>